<?xml version="1.0" encoding="UTF-8"?><svg id="a" xmlns="http://www.w3.org/2000/svg" viewBox="0 0 409.596 49.183"><path d="m404.073,26.748l-.347.034c-.948.189-1.563,1.114-1.374,2.062l3.77,18.837c.168.833.898,1.408,1.718,1.408l.344-.034c.951-.189,1.566-1.114,1.377-2.062l-3.773-18.837c-.166-.833-.896-1.408-1.716-1.408" fill="#9e9e9e"/><path d="m353.846,26.748c-.82,0-1.55.575-1.716,1.408l-3.773,18.837c-.189.948.426,1.873,1.377,2.062l.344.034c.82,0,1.55-.575,1.718-1.408l3.77-18.837c.189-.948-.426-1.873-1.374-2.062l-.347-.034Z" fill="#9e9e9e"/><path d="m378.96,25.181c-1.266,0-2.291,1.025-2.291,2.291s1.025,2.291,2.291,2.291,2.291-1.025,2.291-2.291-1.025-2.291-2.291-2.291" fill="#9e9e9e"/><path d="m99.631,26.636c-.286,0-.575.066-.849.208-.904.468-1.258,1.582-.788,2.488l9.214,17.776c.328.633.975.998,1.642.998.286,0,.575-.068.846-.208.906-.47,1.258-1.584.791-2.488l-9.214-17.778c-.328-.633-.975-.996-1.642-.996" fill="#9e9e9e"/><path d="m72.021,26.636c-.667,0-1.311.363-1.639.996l-9.216,17.778c-.468.904-.116,2.018.791,2.488.271.139.562.208.846.208.67,0,1.314-.365,1.642-.998l9.214-17.776c.47-.906.116-2.02-.788-2.488-.273-.142-.562-.208-.849-.208" fill="#9e9e9e"/><path d="m259.371,26.637c-1.019,0-1.847.825-1.847,1.844v17.773c0,1.022.828,1.847,1.847,1.847s1.847-.825,1.847-1.847v-17.773c0-1.019-.828-1.844-1.847-1.844" fill="#9e9e9e"/><path d="m215.362,26.637c-1.019,0-1.844.825-1.844,1.844v17.773c0,1.022.825,1.847,1.844,1.847s1.847-.825,1.847-1.847v-17.773c0-1.019-.828-1.844-1.847-1.844" fill="#9e9e9e"/><path d="m326.984,26.637c-1.019,0-1.847.825-1.847,1.844v.565c0,9.069-7.377,16.446-16.444,16.446s-16.446-7.377-16.446-16.446v-.565c0-1.019-.828-1.844-1.847-1.844s-1.844.825-1.844,1.844v.565c0,11.105,9.032,20.138,20.138,20.138s20.135-9.032,20.135-20.138v-.565c0-1.019-.825-1.844-1.844-1.844" fill="#9e9e9e"/><path d="m19.777,26.637c-.473,0-.946.181-1.306.541L.758,44.891c-.72.72-.72,1.889,0,2.611.36.36.833.539,1.306.539s.943-.179,1.306-.539l16.407-16.41,16.41,16.41c.36.36.833.539,1.303.539.473,0,.946-.179,1.306-.539.72-.722.72-1.892,0-2.611l-17.713-17.713c-.36-.36-.833-.541-1.306-.541" fill="#9e9e9e"/><path d="m133.918,26.577c-1.019,0-1.847.825-1.847,1.844v17.773c0,1.022.828,1.847,1.847,1.847s1.847-.825,1.847-1.847v-17.773c0-1.019-.828-1.844-1.847-1.844" fill="#9e9e9e"/><path d="m156.729,26.636c-.426,0-.851.147-1.201.444-.775.662-.864,1.829-.2,2.604l15.219,17.773.047.042.176.166.113.095.21.121.118.066.276.089.081.026.381.039.347-.034.118-.032.21-.066.131-.06.173-.095.126-.089.095-.068.047-.05.134-.139.11-.134.095-.152.087-.155.063-.168.053-.171.029-.171.021-.192.008-.068v-17.773c0-1.019-.828-1.847-1.847-1.847s-1.847.828-1.847,1.847v12.779l-11.972-13.979c-.365-.428-.883-.646-1.403-.646" fill="#9e9e9e"/><path d="m404.623,19.009l-3.402-16.998-.024-.081-.058-.181-.063-.15-.081-.15-.1-.15-.1-.118-.142-.139-.058-.055-.053-.037-.171-.11-.129-.068-.179-.068-.142-.045-.184-.034-.155-.016-.176.003-.173.018-.076.008-.087.026-.171.053-.158.066-.144.079-.152.102-.118.1-.137.139-.058.058-13.585,16.998c-.604.757-.481,1.86.276,2.464.323.257.709.384,1.093.384.515,0,1.025-.226,1.371-.659l11.234-14.058,2.664,13.309c.166.833.898,1.408,1.716,1.408l.347-.034c.948-.189,1.566-1.114,1.374-2.062" fill="#9e9e9e"/><path d="m359.786,1.261l-.06-.06-.131-.137-.123-.102-.147-.1-.147-.079-.155-.066-.176-.055-.084-.026-.074-.005-.179-.018-.173-.003-.158.016-.181.032-.144.045-.176.071-.129.068-.171.11-.055.034-.055.055-.145.142-.097.118-.102.15-.079.147-.066.152-.055.181-.024.081-3.402,16.998c-.192.948.423,1.873,1.374,2.062l.344.034c.82,0,1.55-.575,1.718-1.411l2.664-13.307,11.234,14.058c.347.433.856.659,1.371.659.384,0,.77-.126,1.093-.384.757-.604.88-1.708.273-2.464l-13.583-16.998Z" fill="#9e9e9e"/><path d="m87.465.997c-.318-.612-.948-.996-1.639-.996s-1.321.384-1.639.996l-9.211,17.773c-.47.906-.116,2.02.788,2.488.906.468,2.02.116,2.488-.788l7.574-14.613,7.574,14.613c.328.633.972.996,1.642.996.284,0,.575-.066.846-.208.906-.468,1.258-1.582.791-2.488L87.465.997Z" fill="#9e9e9e"/><path d="m259.371.001c-1.019,0-1.847.825-1.847,1.847v17.773c0,1.019.828,1.844,1.847,1.844s1.847-.825,1.847-1.844V1.848c0-1.022-.828-1.847-1.847-1.847" fill="#9e9e9e"/><path d="m236.386.001h-42.046c-1.019,0-1.847.825-1.847,1.847s.828,1.844,1.847,1.844h19.176v15.929c0,1.019.828,1.844,1.847,1.844s1.844-.825,1.844-1.844V3.692h19.179c1.019,0,1.847-.825,1.847-1.844S237.405.001,236.386.001" fill="#9e9e9e"/><path d="m290.401.001c-1.019,0-1.847.825-1.847,1.847v17.773c0,1.019.828,1.844,1.847,1.844s1.847-.825,1.847-1.844V1.848c0-1.022-.828-1.847-1.847-1.847" fill="#9e9e9e"/><path d="m326.984.001c-1.019,0-1.847.825-1.847,1.847v17.773c0,1.019.828,1.844,1.847,1.844s1.847-.825,1.847-1.844V1.848c0-1.022-.828-1.847-1.847-1.847" fill="#9e9e9e"/><path d="m36.086.541l-16.467,16.467L3.151.541C2.429-.179,1.26-.179.54.541-.18,1.261-.18,2.43.54,3.153l17.773,17.773c.347.347.814.541,1.306.541.489,0,.959-.194,1.306-.541L38.697,3.153c.72-.722.72-1.892,0-2.611-.722-.72-1.892-.72-2.611,0" fill="#9e9e9e"/><path d="m135.32.646l-.047-.047-.147-.137-.126-.105-.16-.102-.15-.079-.173-.068-.163-.05-.179-.032-.187-.018-.071-.008-.102.011-.189.021-.173.037-.171.053-.171.074-.15.081-.16.11-.084.058-.047.053-.134.137-.11.134-.095.152-.084.158-.066.166-.053.173-.029.168-.021.194-.005.068v17.773c0,1.019.825,1.847,1.844,1.847s1.847-.828,1.847-1.847V6.839l11.975,13.982c.365.426.88.646,1.4.646.426,0,.854-.147,1.201-.444.775-.665.864-1.829.202-2.604L135.32.646Z" fill="#9e9e9e"/><path d="m171.951.001c-1.019,0-1.847.825-1.847,1.847v17.773c0,1.019.828,1.844,1.847,1.844s1.847-.825,1.847-1.844V1.848c0-1.022-.828-1.847-1.847-1.847" fill="#9e9e9e"/></svg>